<?xml version="1.0" encoding="UTF-8"?>
<svg width="300px" height="300px" viewBox="0 0 300 300" version="1.1" xmlns="http://www.w3.org/2000/svg" xmlns:xlink="http://www.w3.org/1999/xlink">
    <title>Artboard</title>
    <g id="Page-4" stroke="none" stroke-width="1" fill="none" fill-rule="evenodd">
        <g id="Artboard">
            <rect fill="#A15454" x="0" y="0" width="300" height="300"></rect>
            <g id="Group-7" transform="translate(-21.000000, -3.000000)">
                <g id="Camera-3D" transform="translate(17.000000, 174.000000)">
                    <g id="Group-5">
                        <g id="Group-3">
                            <g id="Group-2" transform="translate(55.341615, 32.243750) scale(-1, 1) rotate(90.000000) translate(-55.341615, -32.243750) translate(47.375776, 15.075000)"></g>
                            <line x1="55.3416149" y1="8.35481366" x2="55.3416149" y2="41.8951863" id="Path-8" stroke="#979797" transform="translate(55.341615, 25.125000) scale(-1, 1) rotate(90.000000) translate(-55.341615, -25.125000) "></line>
                            <polyline id="Path-9" fill="#454648" transform="translate(55.341615, 32.662500) scale(-1, 1) rotate(90.000000) translate(-55.341615, -32.662500) " points="48.2228649 49.4326863 62.4603649 49.4326863 62.4603649 16.1890568 55.5050181 15.8923137 48.2228649 15.8923137"></polyline>
                            <polygon id="Path-10" fill="#9C2F22" transform="translate(57.018634, 32.662500) scale(-1, 1) rotate(90.000000) translate(-57.018634, -32.662500) " points="49.8998835 30.9854814 64.1373835 30.9854814 64.1373835 34.3395186 49.8998835 34.3395186"></polygon>
                            <polygon id="Path-10" fill="#9C2F22" transform="translate(63.726708, 32.662500) scale(-1, 1) rotate(90.000000) translate(-63.726708, -32.662500) " points="56.6079581 30.9854814 70.8454581 30.9854814 70.8454581 34.3395186 56.6079581 34.3395186"></polygon>
                            <g id="Group" transform="translate(21.801242, 3.350000)">
                                <path d="M57.9142669,81.0208223 L57.9142669,86.3517282 L63.3080069,86.3517282 L63.3080069,81.0208223 L78.2598324,81.0208223 L78.2598324,86.3517282 L91.1543717,86.3517282 L91.1543717,106.232014 L84.3122358,106.232014 L84.3122358,114.004815 L63.3080069,114.004815 L63.3080069,109.287715 L60.8060814,109.287715 L57.9142669,106.232014 L57.9142669,109.287715 L55.2464312,106.232014 L52.7893014,106.232014 L52.7893014,93.6695028 L48.8953895,90.1862686 L48.8953895,52.4689075 L41.3298852,46.7933238 L1.01709117e-12,46.7933238 L1.01709117e-12,41.1392824 L52.7893014,9.82331692 L91.1543717,0 L91.1543717,46.7933238 L84.3122358,43.696195 L55.227,43.696 L57.9142669,81.0208223 Z M41.3298852,41.1392824 L45.3386907,43.696195 L45.5771859,43.696195 L41.3298852,41.1392824 Z M48.7560249,18.9970488 L13.4967932,41.1392824 L48.7560249,41.1392824 L48.7560249,18.9970488 Z" id="Combined-Shape" fill="#2A231D"></path>
                                <polygon id="Path-4" stroke="#979797" fill="#D8D8D8" points="72.6036329 43.696195 55.3274279 57.0024077 89.4604144 57.0024077 89.4604144 54.1569469 79.1996146 54.1569469 79.1996146 47.397503 91.1543717 47.397503 84.3122358 43.696195"></polygon>
                                <polygon id="Path-5" fill="#2A231D" points="70.6076776 57.0024077 94.5821763 78.7686387 98.8090407 74.2868836 77.3268948 57.0024077"></polygon>
                                <polygon id="Path-6" fill="#979797" points="94.7515528 78.1817552 98.901251 81.7501341 101.207023 79.9659446 98.493995 74.4266697"></polygon>
                            </g>
                            <polygon id="Path-11" fill="#333532" points="5.63880988 19.5656492 14.5417621 19.5656492 14.5417621 13.1733169 31.5629436 13.1733169 31.5629436 21.7651712 38.8681717 21.7651712 38.8681717 34.6339639 22.2204969 44.4892824 10.5710171 44.4892824 10.5710171 40.9547947 5.63880988 40.9547947"></polygon>
                            <polygon id="Path-7" fill="#2A231D" points="121.029538 86.4438723 121.029538 120.795855 131.541526 120.795855 130.296492 85.1001341 121.029538 80.0732292"></polygon>
                            <g id="Group-2" transform="translate(85.294685, 60.718750)">
                                <line x1="0.419254658" y1="-1.48769885e-15" x2="0.419254658" y2="24.3813841" id="Path-8" stroke="#979797"></line>
                                <polyline id="Path-9" fill="#454648" points="0.419254658 24.3813841 14.3284531 24.3813841 14.3284531 6.28125 7.5334892 0 0.419254658 0"></polyline>
                                <polygon id="Path-10" fill="#9C2F22" points="0.419254658 12.1906921 14.3284531 12.1906921 14.3284531 14.3796751 0.419254658 14.3796751"></polygon>
                                <polygon id="Path-10" fill="#9C2F22" points="0.652519665 17.16875 14.5617181 17.16875 14.5617181 19.357733 0.652519665 19.357733"></polygon>
                            </g>
                        </g>
                        <path d="M59.5339384,50.25 L59.5339384,54.7096452 L62.0496894,54.7096452 L62.0496894,77.8875 L23.4782609,61.2006017 L23.4782609,54.7096452 L29.359117,53.0548804 L29.359117,50.25 L59.5339384,50.25 Z M58.6956522,59.4625 L27.6708075,59.4625 L55.3731371,72.025 L58.6956522,72.025 L58.6956522,59.4625 Z" id="Combined-Shape" stroke="#979797" fill="#D8D8D8"></path>
                        <g id="Group-4" transform="translate(8.109883, 55.873545)">
                            <ellipse id="Oval" stroke="#979797" fill="#2D2D2B" cx="34.2348374" cy="40.0202054" rx="14.173913" ry="13.31875"></ellipse>
                            <polygon id="Path-14" fill="#3C3934" points="-5.95796704e-15 1.48769885e-15 -5.95796704e-15 2.59872776 8.2824137 4.84520537 8.2824137 8.09031671 4.14120685 8.09031671 4.14120685 11.1264554 17.9048652 13.5819057 53.9398064 24.2029384 53.9398064 21.9031251 47.2317318 19.2248805 47.2317318 17.0358974"></polygon>
                            <ellipse id="Oval" stroke="#979797" fill="#454648" cx="22.0764523" cy="21.1764554" rx="6.20807453" ry="6.2"></ellipse>
                            <polygon id="Path-15" stroke="#979797" fill="#2A231D" points="23.3177887 15.3619786 59.3901169 26.2450941 59.3901169 32.0639554 47.2317318 29.2265895 47.2317318 33.6808671 41.3539528 29.2265895 32.4360769 26.2450941 25.6953663 29.2265895 22.0764523 27.8764554 28.7845269 24.1996846 28.7845269 18.1303889"></polygon>
                            <polygon id="Path-16" stroke="#979797" fill="#454648" points="22.0764523 49.1640513 22.0764523 58.3579566 50.5857691 58.3579566 50.5857691 46.9700511 47.2317318 46.9700511 40.7332846 52.6640039 34.2348374 53.8389554 26.9699032 52.6640039"></polygon>
                            <rect id="Rectangle" stroke="#979797" fill="#D8D8D8" x="20.0609244" y="66.9014554" width="30.863354" height="3.1875"></rect>
                        </g>
                    </g>
                    <g id="Group-6" transform="translate(32.000000, 114.000000)">
                        <rect id="Rectangle" fill="#2D2518" x="11.6666667" y="12.5" width="4.16666667" height="7.5"></rect>
                        <rect id="Rectangle" fill="#2F2B22" x="0" y="0" width="25" height="8.33333333"></rect>
                        <rect id="Rectangle" fill="#D8D8D8" x="0" y="12.5" width="5" height="7.5"></rect>
                        <rect id="Rectangle" fill="#D8D8D8" x="19.1666667" y="12.5" width="4.16666667" height="7.5"></rect>
                    </g>
                </g>
                <text id="HOW-to-make-a-movie" font-family="Herculanum" font-size="60" font-weight="normal" fill="#000000">
                    <tspan x="54.92" y="48">HOW to </tspan>
                    <tspan x="51.05" y="108">make a </tspan>
                    <tspan x="74.39" y="168">movie</tspan>
                </text>
                <g id="Light" transform="translate(152.000000, 195.000000)" stroke="#979797">
                    <polygon id="Path-17" fill="#2F4259" points="19 19.638626 28.1023437 17 73 18.319313 49.1323646 21"></polygon>
                    <polygon id="Path-18" fill="#D8D8D8" points="49.468655 20.9071508 74 20 74 23.8420131 68.6808658 39.5152094 68.6808658 48.3197961 66.4247363 49.2288581 65.5508924 65.3116738 64.4039724 68 43 50.3991081"></polygon>
                    <polygon id="Path-19" fill="#D8D8D8" points="15 54 40.9570623 54 44.7317395 55.2043909 63 72.6353147 19.8992124 74"></polygon>
                    <polygon id="Path-20" points="18.002867 20 19 21.2809931 13 66 13 50.1207012"></polygon>
                    <circle id="Oval" fill="#437897" cx="30" cy="35" r="11.5"></circle>
                    <ellipse id="Oval" fill="#FFFFFF" cx="29" cy="35.5" rx="4.5" ry="5"></ellipse>
                    <path d="M2.45690269,18.8086965 L0.869506366,18.8086965 L0,29.571343 L2.45690269,41.0828334 L13.2353211,49 L18.8218035,20.6207844 L20.8105272,22.4093185 L23.8492467,20.6207844 L19.9352583,19.3873197 L28,16.9966085 L20.8105272,11.8620417 C18.9566713,10.7775987 17.5482588,10.2203589 16.5852897,10.1903223 C15.2819136,10.1496679 13.123078,9.7831973 11.9963706,10.1903223 C10.940959,10.5716853 9.8518113,11.7220774 9.33790931,11.8620417 C7.66739011,12.3170179 6.62458007,13.6425796 6.20947919,15.8387269 L2.45690269,18.8086965 Z" id="Path-21" fill="#D8D8D8"></path>
                    <polygon id="Path-22" fill="#6C6A6D" points="5 6.51753982 5 29 6.60208062 29 6.60208062 6.51753982 8.88194034 2.55718491 33.1193206 2.55718491 35.7825196 17.4261988 37 17.4261988 34.3900485 0 7.41730701 1.26998992"></polygon>
                </g>
                <g id="Action-Clip" transform="translate(231.000000, 191.000000)">
                    <path d="M61.3658239,6.27454118 L2.56107502,6.2933531 L2.55941526,11.4898483 L61.3641641,11.4710364 L61.3658239,6.27454118 Z" id="Rectangle" stroke="#979797" fill="#D8D8D8" transform="translate(31.962620, 8.882195) rotate(-11.000000) translate(-31.962620, -8.882195) "></path>
                    <rect id="Rectangle" stroke="#979797" fill="#8A8888" x="5.5" y="18.5" width="54" height="29"></rect>
                    <circle id="Oval" stroke="#979797" fill="#494949" cx="4.5" cy="17.5" r="4"></circle>
                    <text id="Made-by-Jose-Antonio" font-family="AppleSymbols, Apple Symbols" font-size="5" font-weight="normal" fill="#000000">
                        <tspan x="25.1000977" y="25.3">Made by </tspan>
                        <tspan x="21.0754395" y="29.4">Jose Antonio</tspan>
                        <tspan x="32.5" y="33.5"></tspan>
                        <tspan x="21.1743164" y="37.6">WWDC 2020</tspan>
                    </text>
                </g>
            </g>
        </g>
    </g>
</svg>